HIERARCHY
ROOT hip
{
	OFFSET 0.000000 0.000000 0.000000 
	CHANNELS 6 Xposition Yposition Zposition Xrotation Zrotation Yrotation
	JOINT abdomen
	{
		OFFSET 0.000000 3.402643 0.000000 
		CHANNELS 3 Xrotation Zrotation Yrotation
		JOINT chest
		{
			OFFSET 0.000000 8.438565 -0.680529 
			CHANNELS 3 Xrotation Zrotation Yrotation
			JOINT neck
			{
				OFFSET 0.000000 10.207942 -0.272212 
				CHANNELS 3 Xrotation Zrotation Yrotation
				JOINT head
				{
					OFFSET 0.000000 3.130431 0.000000 
					CHANNELS 3 Xrotation Zrotation Yrotation
					End Site
					{
						OFFSET 0.000000 3.130435 0.000000 
					}
				}
			}
			JOINT lCollar
			{
				OFFSET 3.470700 6.669187 -0.816635 
				CHANNELS 3 Yrotation Zrotation Xrotation
				JOINT lShldr
				{
					OFFSET 3.198488 0.000000 0.000000 
					CHANNELS 3 Zrotation Yrotation Xrotation
					JOINT lForeArm
					{
						OFFSET 10.139888 0.000000 0.000000 
						CHANNELS 3 Yrotation Zrotation Xrotation
						JOINT lHand
						{
							OFFSET 8.370511 0.000000 0.000000 
							CHANNELS 3 Zrotation Yrotation Xrotation
							End Site
							{
								OFFSET 4.083176 0.000000 0.000000 
							}
						}
					}
				}
			}
			JOINT rCollar
			{
				OFFSET -3.470700 6.669187 -0.816635 
				CHANNELS 3 Yrotation Zrotation Xrotation
				JOINT rShldr
				{
					OFFSET -3.198488 0.000000 0.000000 
					CHANNELS 3 Zrotation Yrotation Xrotation
					JOINT rForeArm
					{
						OFFSET -10.139888 0.000000 0.000000 
						CHANNELS 3 Yrotation Zrotation Xrotation
						JOINT rHand
						{
							OFFSET -8.370511 0.000000 0.000000 
							CHANNELS 3 Zrotation Yrotation Xrotation
							End Site
							{
								OFFSET -4.083176 0.000000 0.000000 
							}
						}
					}
				}
			}
		}
	}
	JOINT lThigh
	{
		OFFSET 5.308129 -1.633274 1.361059 
		CHANNELS 3 Xrotation Zrotation Yrotation
		JOINT lShin
		{
			OFFSET -2.041588 -20.007561 0.000000 
			CHANNELS 3 Xrotation Zrotation Yrotation
			JOINT lFoot
			{
				OFFSET 0.000000 -19.190928 -1.224953 
				CHANNELS 3 Xrotation Yrotation Zrotation
				End Site
				{
					OFFSET 0.000000 -2.449906 4.627600 
				}
			}
		}
	}
	JOINT rThigh
	{
		OFFSET -5.308129 -1.633274 1.361059 
		CHANNELS 3 Xrotation Zrotation Yrotation
		JOINT rShin
		{
			OFFSET 2.041588 -20.007561 0.000000 
			CHANNELS 3 Xrotation Zrotation Yrotation
			JOINT rFoot
			{
				OFFSET 0.000000 -19.190928 -1.224953 
				CHANNELS 3 Xrotation Yrotation Zrotation
				End Site
				{
					OFFSET 0.000000 -2.449906 4.627600 
				}
			}
		}
	}
}
MOTION
Frames: 13
Frame Time: 0.033333
3.357299 41.774937 3.357299 -12.606829 -1.495558 -0.022008 39.389248 2.563730 -13.539006 7.176604 0.519127 -4.804879 -8.544922 -0.001505 -0.009645 8.474752 14.062551 0.669352 2.000000 -2.000000 0.000000 -11.999595 -70.065453 -17.243368 -63.812450 -0.533415 8.705926 -20.813139 -4.522958 -72.852135 -2.000000 2.000000 0.000000 65.853790 64.774498 42.856350 77.755844 0.503303 8.853125 5.949950 -25.841307 -53.943012 -32.628925 7.947149 -1.929891 32.968403 -1.070466 -2.648465 -6.607308 1.406157 -2.660939 -0.546797 -8.046776 2.321849 51.812813 0.070540 3.518314 -37.757298 -1.927617 7.137789 
3.297204 38.233894 3.297204 -20.868864 -2.870458 -0.005306 34.488850 1.178113 1.118667 5.547730 1.267629 0.021754 -8.544922 -0.001505 -0.009645 16.446815 11.774871 -21.469610 2.000000 -2.000000 0.000000 -82.435143 -41.612377 32.175518 -96.774208 -0.541309 9.047787 0.896274 18.995920 -18.318874 -2.000000 2.000000 0.000000 60.691437 20.577240 26.019938 106.770744 0.579447 9.143332 -0.902044 -19.005135 -18.338219 -31.135410 8.064650 -3.348042 28.159472 -1.275776 -2.376439 -13.483290 2.819499 -1.593516 -8.468724 -6.557354 3.821707 70.389000 -1.113236 4.049319 -39.343830 -1.872689 8.115648 
3.242110 37.302284 3.242110 -35.595539 -2.869274 -0.003103 44.719185 0.866236 1.493744 9.650052 1.262395 0.056074 -8.544922 -0.001505 -0.009645 22.293640 18.467646 -16.052750 2.000000 -2.000000 0.000000 -74.053543 -47.527561 23.957584 -86.874268 -0.512322 8.949789 0.896274 18.995920 -18.318874 -2.000000 2.000000 0.000000 54.924179 25.374060 15.666200 100.352089 0.549695 9.090598 -0.902044 -19.005135 -18.338219 -34.633251 7.401355 -3.635724 35.429760 -0.968533 -2.782863 -17.270588 3.138669 -1.168020 -16.924850 -6.238055 4.990718 87.373055 -2.324293 4.185032 -33.456478 -0.212637 9.214446 
3.187017 37.362415 3.187017 -49.843670 -2.867630 -0.001325 54.722168 0.497228 1.783982 13.644837 1.255419 0.088001 -8.544922 -0.001505 -0.009645 29.358595 22.794062 -8.451243 2.000000 -2.000000 0.000000 -64.315514 -52.078236 13.048656 -77.145943 -0.507295 8.848287 0.896274 18.995920 -18.318874 -2.000000 2.000000 0.000000 49.379982 28.877815 4.513702 94.059761 0.532229 9.029104 -0.902044 -19.005135 -18.338219 -38.066902 6.717301 -3.883155 42.555214 -0.601474 -3.160164 -20.915289 3.504334 -0.739101 -25.318832 -5.897808 5.735771 97.347328 -3.046508 4.087411 -21.078829 2.459475 9.678470 
3.131922 36.866482 3.131922 -60.566380 -2.866132 -0.000285 63.054264 0.142150 1.976270 16.975460 1.257910 0.100877 -8.544922 -0.001505 -0.009645 36.002651 24.184065 -1.013411 2.000000 -2.000000 0.000000 -54.807568 -55.022430 1.784092 -69.120369 -0.515263 8.762978 0.896274 18.995920 -18.318874 -2.000000 2.000000 0.000000 44.632126 31.246920 -5.474569 88.616814 0.516265 8.969761 -0.902044 -19.005135 -18.338219 -40.903538 6.220230 -4.067584 48.476906 -0.286480 -3.418193 -24.181925 3.769905 -0.428919 -31.508062 -4.452647 5.110630 97.805687 -3.075597 4.085523 -17.921001 1.505293 8.918410 
3.071815 36.555939 3.071815 -71.054207 -2.864509 -0.009307 72.439346 -0.268909 2.128910 20.745638 1.245940 0.128186 -8.544922 -0.001505 -0.009645 44.610100 22.963791 7.882537 2.000000 -2.000000 0.000000 -43.743210 -57.373711 -12.356977 -60.698936 -0.538105 8.675716 0.896274 18.995920 -18.318874 -2.000000 2.000000 0.000000 39.978489 33.569885 -16.945202 83.165100 0.510964 8.913243 -0.902044 -19.005135 -18.338219 -44.004253 5.116705 -4.270954 54.668976 0.073625 -3.649843 -27.540354 4.327738 0.354670 -29.619423 -3.212675 3.612989 65.594002 -0.809758 3.958815 -15.444560 -2.093231 7.023546 
3.011708 36.145271 3.011708 -81.318382 -2.865765 0.001127 81.677673 -0.699714 2.213707 24.457243 1.252265 0.159892 -8.544922 -0.001505 -0.009645 52.251167 18.934757 15.441879 2.000000 -2.000000 0.000000 -33.233528 -58.143467 -26.824860 -52.107395 -0.571433 8.594015 0.896274 18.995920 -18.318874 -2.000000 2.000000 0.000000 36.093102 35.329529 -28.235287 77.726074 0.508020 8.851515 -0.902044 -19.005135 -18.338219 -47.196949 3.749911 -4.387544 60.945061 0.473092 -3.878271 -30.953793 5.038184 1.326252 -22.823006 -2.528916 2.393657 55.722515 -0.156333 3.657209 -14.138840 -2.063643 5.202006 
2.971641 35.378929 2.971640 -91.503944 -2.859066 0.001432 89.570076 -1.089053 2.215918 27.611958 1.241368 0.166225 -8.544922 -0.001505 -0.009645 56.913673 14.049670 20.037560 2.000000 -2.000000 0.000000 -26.206337 -57.305275 -38.085007 -43.704758 -0.618715 8.520306 0.896274 18.995920 -18.318874 -2.000000 2.000000 0.000000 33.729805 36.240566 -37.542316 72.327827 0.509919 8.803041 -0.902044 -19.005135 -18.338219 -50.290108 2.568083 -4.455181 67.132950 0.882225 -4.036353 -34.332478 5.688056 2.176430 -14.544664 -1.161461 0.736658 46.273693 0.393358 3.289238 -12.615618 -1.505167 2.621172 
2.926573 34.312180 2.926573 -101.689499 -2.863301 0.001665 94.917152 -1.349087 2.199610 29.751074 1.239278 0.188137 -8.544922 -0.001505 -0.009645 57.646919 10.955940 21.893328 2.000000 -2.000000 0.000000 -24.560053 -55.187237 -43.372765 -35.754135 -0.673060 8.462491 0.896274 18.995920 -18.318874 -2.000000 2.000000 0.000000 33.576405 35.834667 -43.106503 66.954254 0.517134 8.740482 -0.902044 -19.005135 -18.338219 -53.132149 1.875034 -4.459862 72.989021 1.278761 -4.145478 -37.568233 6.088861 2.585126 -6.085207 0.360509 -0.628205 38.087452 0.837667 2.875457 -11.141076 -0.651249 0.252439 
2.886506 33.040028 2.886506 -111.953163 -2.861328 0.001462 96.507858 -1.420911 2.197506 30.395660 1.237669 0.189664 -8.544922 -0.001505 -0.009645 53.425064 11.725147 21.522823 2.000000 -2.000000 0.000000 -28.642900 -51.387142 -41.453709 -28.506735 -0.721450 8.409863 0.896274 18.995920 -18.318874 -2.000000 2.000000 0.000000 35.963745 33.293213 -43.561615 61.674927 0.532684 8.690779 -0.902044 -19.005135 -18.338219 -55.493881 2.050796 -4.486872 78.288666 1.669847 -4.213265 -40.455673 6.057631 2.281498 1.264474 1.273918 -1.326105 31.934799 1.121232 2.531945 -10.010198 0.094758 -1.164209 
2.861453 30.706001 2.861453 -111.953163 -2.861328 0.001462 75.453743 -0.406880 2.167903 21.956795 1.251810 0.141476 -8.544922 -0.001505 -0.009645 10.478872 23.874573 -4.189722 2.000000 -2.000000 0.000000 -50.153889 -27.236416 -10.678591 -22.278456 -0.776344 8.371243 0.896274 18.995920 -18.318874 -2.000000 2.000000 0.000000 46.985756 11.480624 -17.918253 56.448864 0.546133 8.640372 -0.902044 -19.005135 -18.338219 -57.233818 3.447101 -4.613615 82.849129 1.993103 -4.239632 -42.949482 5.315366 1.023961 6.262943 0.770439 -1.110681 28.581633 1.258382 2.355247 -9.450873 0.360037 -0.798775 
2.861453 28.612377 2.861453 -111.953163 -2.861328 0.001462 49.140408 0.713539 1.628976 11.427631 1.260226 0.068248 -8.544922 -0.001505 -0.009645 -30.101398 0.732370 -24.247442 2.000000 -2.000000 0.000000 -53.266403 5.442465 11.977742 -17.327663 -0.815687 8.340990 0.896274 18.995920 -18.318874 -2.000000 2.000000 0.000000 43.986652 -15.675995 9.419177 51.321892 0.566884 8.584782 -0.902044 -19.005135 -18.338219 -58.168938 6.464392 -4.922575 86.465622 2.246692 -4.226353 -45.007774 3.595266 -1.447803 7.523678 -1.922643 0.256868 28.836676 1.230299 2.361732 -9.775987 -0.030132 2.090451 
2.881493 33.205299 2.881493 -111.953163 -2.861328 0.001462 62.869072 0.156933 1.974118 16.916855 1.258121 0.099843 -8.544922 -0.001505 -0.009645 17.594868 22.750231 -8.501627 2.000000 -2.000000 0.000000 -50.461262 -7.839947 -0.433282 -13.465369 -0.856999 8.323166 0.896274 18.995920 -18.318874 -2.000000 2.000000 0.000000 43.676090 -4.714736 -5.980198 45.958374 0.596954 8.538260 -0.902044 -19.005135 -18.338219 -55.104019 18.211740 -5.719005 85.480804 2.187582 -4.227337 -45.302814 -3.287545 -10.702682 -4.702685 -12.247679 7.594675 43.512871 0.540105 3.164649 -13.137432 -1.471775 14.847909 
